<svg id="svg" version="1.1" xmlns="http://www.w3.org/2000/svg" xmlns:xlink="http://www.w3.org/1999/xlink" width="400" height="300" viewBox="0, 0, 400,300"><g id="svgg"><path id="path0" d="M0.000 150.000 L 0.000 300.000 200.000 300.000 L 400.000 300.000 400.000 150.000 L 400.000 0.000 200.000 0.000 L 0.000 0.000 0.000 150.000 M67.800 109.514 C 72.710 110.960,75.774 115.003,76.203 120.600 C 76.532 124.898,78.088 127.289,81.456 128.672 C 82.709 129.186,107.055 129.465,109.493 128.994 C 113.330 128.252,115.797 125.368,115.803 121.618 C 115.827 108.670,132.459 104.044,138.061 115.427 C 139.485 118.322,139.413 116.369,139.354 150.655 L 139.300 181.500 138.859 182.655 C 136.086 189.918,128.967 192.905,122.282 189.610 C 118.799 187.893,116.684 184.859,115.926 180.489 C 115.413 177.535,113.946 175.522,111.440 174.335 L 110.100 173.700 96.100 173.700 L 82.100 173.700 80.962 174.259 C 78.651 175.394,76.893 177.585,76.436 179.900 C 75.729 183.487,74.814 185.381,72.801 187.425 C 66.568 193.756,55.972 191.219,53.298 182.755 L 52.800 181.179 52.800 150.132 C 52.800 122.791,52.837 118.943,53.109 117.899 C 54.770 111.520,61.524 107.665,67.800 109.514 M184.084 121.184 C 191.096 123.659,192.582 132.635,187.175 139.856 C 183.188 145.180,175.656 149.400,170.142 149.400 C 167.204 149.400,166.084 148.231,166.231 145.320 C 166.332 143.322,166.609 143.000,167.813 143.482 C 172.001 145.158,180.004 140.885,182.861 135.447 C 187.658 126.320,178.243 122.921,170.287 130.907 C 158.131 143.112,158.271 170.306,170.507 173.493 C 174.853 174.625,180.552 172.857,184.149 169.260 C 186.139 167.269,188.779 168.794,188.796 171.943 C 188.808 174.345,182.258 178.453,176.750 179.498 C 166.117 181.515,157.938 175.169,155.608 163.094 C 151.862 143.681,162.766 123.141,178.100 120.728 C 179.498 120.508,182.904 120.768,184.084 121.184 M59.404 121.650 C 56.966 122.896,56.859 125.958,59.198 127.550 C 60.024 128.112,67.623 128.247,68.880 127.721 C 71.368 126.682,71.405 122.813,68.940 121.619 C 67.585 120.963,60.704 120.986,59.404 121.650 M122.304 121.657 C 120.018 122.952,120.062 126.312,122.381 127.535 C 123.728 128.245,130.867 128.248,132.208 127.539 C 134.491 126.332,134.535 122.934,132.285 121.653 C 131.075 120.965,123.522 120.968,122.304 121.657 M277.384 125.065 C 279.021 126.149,278.888 124.151,279.000 149.200 C 279.113 174.370,278.980 172.442,280.664 173.271 C 283.629 174.730,286.447 170.238,286.247 164.375 C 285.914 154.645,291.084 146.268,297.685 145.845 C 306.889 145.254,308.057 158.590,299.427 165.727 C 298.183 166.755,294.886 168.600,294.291 168.600 C 293.741 168.600,293.783 169.052,294.432 170.130 C 296.974 174.351,303.646 174.750,307.172 170.892 C 309.845 167.968,311.622 160.937,312.175 151.100 C 312.427 146.631,313.048 145.901,316.600 145.901 C 320.111 145.901,320.972 146.838,325.019 155.056 C 325.812 156.667,326.533 157.941,326.620 157.887 C 326.868 157.734,329.965 152.600,331.679 149.500 C 333.405 146.378,333.905 145.800,334.882 145.800 C 336.309 145.800,337.978 147.719,338.146 149.551 L 338.232 150.500 333.634 157.065 L 329.036 163.631 329.515 164.715 C 334.585 176.178,339.127 176.921,341.711 166.710 C 342.398 163.997,342.574 163.565,343.200 163.056 C 344.001 162.406,345.562 163.126,346.344 164.506 C 347.957 167.355,343.548 176.128,339.508 178.105 C 334.688 180.463,329.954 177.940,326.254 171.041 C 325.342 169.340,325.241 169.224,324.964 169.548 C 324.798 169.742,323.478 171.579,322.030 173.631 C 318.521 178.602,318.083 178.968,315.908 178.743 C 312.987 178.442,311.424 176.331,313.207 175.095 C 314.704 174.057,318.202 169.975,321.446 165.479 L 322.760 163.658 322.010 161.979 C 321.004 159.726,320.000 157.743,318.527 155.100 L 317.300 152.900 317.159 154.500 C 316.707 159.644,314.808 168.163,313.549 170.700 C 309.036 179.789,296.776 181.691,290.087 174.339 L 288.959 173.100 288.629 173.592 C 284.950 179.093,278.570 180.577,275.073 176.746 L 274.300 175.900 272.833 176.947 C 268.428 180.091,262.423 179.191,259.339 174.924 C 259.081 174.568,258.999 174.603,257.784 175.587 C 252.024 180.249,243.218 179.787,238.278 174.563 L 237.272 173.500 236.324 174.760 C 232.913 179.294,227.136 180.157,223.947 176.610 C 222.298 174.776,222.337 175.077,222.202 163.300 C 222.073 151.997,222.040 151.683,220.939 151.182 C 219.046 150.319,214.846 155.953,213.354 161.355 C 212.966 162.761,212.918 163.571,212.814 170.368 L 212.700 177.835 212.139 178.318 C 210.579 179.659,207.370 178.378,206.904 176.229 L 206.759 175.557 205.929 176.348 C 201.194 180.860,194.392 178.997,193.403 172.917 C 193.054 170.776,193.108 147.407,193.462 147.053 C 194.317 146.197,197.060 146.613,198.221 147.774 C 199.388 148.941,199.398 149.045,199.399 160.900 C 199.401 172.777,199.393 172.700,200.627 173.384 C 202.588 174.471,204.902 171.606,206.195 166.488 L 206.799 164.100 206.795 156.700 C 206.792 152.630,206.711 148.958,206.614 148.539 C 206.024 146.000,211.005 145.942,212.455 148.472 C 212.590 148.707,212.745 149.885,212.800 151.089 L 212.900 153.278 213.888 151.603 C 218.152 144.371,225.520 143.706,227.760 150.352 C 228.030 151.153,228.097 152.899,228.190 161.600 C 228.290 171.011,228.331 171.957,228.660 172.559 C 229.828 174.699,232.558 173.332,233.992 169.889 L 234.650 168.308 234.397 166.681 C 232.747 156.071,239.139 145.298,246.761 145.844 C 255.221 146.449,255.500 159.160,247.200 165.853 C 245.834 166.954,242.882 168.600,242.272 168.600 C 240.929 168.600,243.258 171.820,245.293 172.776 C 250.860 175.391,257.164 171.601,257.185 165.626 C 257.220 155.902,262.660 148.403,271.176 146.340 L 272.995 145.900 272.991 136.700 C 272.987 128.122,272.961 127.426,272.600 126.400 C 272.100 124.978,272.092 125.030,272.850 124.686 C 273.926 124.198,276.384 124.404,277.384 125.065 M199.739 129.769 C 202.561 131.208,203.148 135.198,200.873 137.473 C 197.824 140.521,192.753 138.336,192.773 133.982 C 192.791 130.422,196.555 128.145,199.739 129.769 M81.679 134.024 C 79.453 134.777,77.680 136.480,76.767 138.744 C 76.234 140.065,75.920 159.990,76.392 162.552 C 76.999 165.846,79.543 168.364,82.887 168.981 C 84.439 169.267,107.909 169.283,109.408 168.998 C 111.914 168.523,114.117 166.904,115.196 164.744 L 115.800 163.536 115.800 151.418 L 115.800 139.300 115.230 138.096 C 114.488 136.527,113.031 135.089,111.401 134.316 L 110.100 133.700 96.500 133.655 C 83.220 133.611,82.871 133.620,81.679 134.024 M122.900 134.100 C 120.162 135.068,119.926 139.043,122.532 140.311 C 123.393 140.730,128.105 140.964,130.504 140.707 C 134.394 140.290,135.359 135.775,131.900 134.178 C 130.854 133.695,124.209 133.638,122.900 134.100 M59.500 134.233 C 56.914 135.664,56.892 139.244,59.463 140.411 C 60.774 141.006,67.690 140.986,68.935 140.383 C 71.333 139.222,71.486 135.985,69.216 134.455 C 68.446 133.936,60.371 133.752,59.500 134.233 M59.404 147.050 C 57.023 148.267,56.857 151.230,59.077 152.888 C 59.933 153.527,68.471 153.522,69.335 152.882 C 71.490 151.285,71.317 148.218,69.006 147.050 C 68.173 146.629,67.863 146.600,64.200 146.600 C 60.534 146.600,60.229 146.629,59.404 147.050 M122.342 147.018 C 120.495 147.993,120.055 150.537,121.457 152.134 C 122.486 153.306,122.919 153.400,127.300 153.400 C 131.681 153.400,132.114 153.306,133.143 152.134 C 134.562 150.519,134.100 147.970,132.216 147.008 C 131.017 146.397,123.505 146.404,122.342 147.018 M244.064 151.614 C 242.762 152.448,241.738 154.681,241.089 158.100 C 240.749 159.887,240.580 163.841,240.831 164.096 C 241.093 164.361,242.329 163.512,243.707 162.120 C 247.965 157.824,248.267 148.922,244.064 151.614 M271.594 151.575 C 265.724 153.454,262.332 160.072,263.396 167.571 C 264.231 173.462,269.133 175.607,272.295 171.466 L 273.000 170.542 273.000 160.871 C 273.000 155.552,272.933 151.205,272.850 151.211 C 272.768 151.217,272.202 151.381,271.594 151.575 M296.117 151.587 C 294.832 152.434,293.878 154.473,293.191 157.844 C 292.781 159.854,292.559 163.824,292.841 164.107 C 293.103 164.370,294.727 163.229,295.948 161.924 C 299.990 157.602,300.132 148.940,296.117 151.587 M60.225 159.391 C 57.304 160.120,56.649 163.891,59.145 165.603 C 59.997 166.187,66.654 166.470,68.411 165.997 C 71.362 165.202,71.797 161.028,69.068 159.684 C 68.218 159.266,61.605 159.047,60.225 159.391 M122.692 159.576 C 120.083 160.761,119.913 164.297,122.400 165.636 C 123.561 166.261,131.620 166.100,132.555 165.433 C 134.734 163.878,134.382 160.723,131.900 159.578 C 130.713 159.030,123.896 159.029,122.692 159.576 M59.480 172.381 C 57.246 173.396,56.928 176.609,58.913 178.124 L 59.668 178.700 63.930 178.761 C 69.678 178.843,70.700 178.338,70.700 175.416 C 70.700 172.555,69.658 172.009,64.200 172.009 C 60.824 172.009,60.190 172.059,59.480 172.381 M122.397 172.370 C 120.511 173.372,120.046 175.927,121.457 177.534 C 122.486 178.706,122.919 178.800,127.300 178.800 C 132.807 178.800,134.488 177.764,133.917 174.722 C 133.481 172.396,132.518 172.000,127.300 172.000 C 123.590 172.000,123.011 172.044,122.397 172.370 " stroke="none" fill="#fbfbd3" fill-rule="evenodd"></path><path id="path1" d="M176.500 121.129 C 160.520 124.518,150.009 150.461,157.296 168.532 C 161.927 180.015,174.059 183.228,185.100 175.893 C 188.665 173.525,189.392 172.087,188.120 169.916 C 186.912 167.855,185.841 167.740,184.031 169.476 C 179.568 173.757,173.187 175.167,168.618 172.882 C 157.842 167.491,158.937 142.083,170.440 130.599 C 176.567 124.482,184.538 125.041,184.161 131.562 C 183.773 138.270,173.208 146.036,167.805 143.585 C 166.737 143.101,166.503 143.276,166.285 144.727 C 165.617 149.184,169.136 150.539,175.470 148.263 C 184.089 145.167,190.277 137.915,190.286 130.900 C 190.296 123.318,184.742 119.382,176.500 121.129 M273.667 124.586 C 272.336 124.804,272.155 125.057,272.611 126.062 C 272.967 126.848,272.991 127.496,272.996 136.446 L 273.000 145.992 272.450 146.110 C 262.857 148.155,257.209 155.629,257.198 166.295 C 257.190 173.758,245.941 176.462,242.180 169.904 C 241.455 168.641,241.442 168.710,242.450 168.409 C 254.206 164.891,257.362 145.999,246.200 145.961 C 238.912 145.936,232.776 156.616,234.478 166.360 L 234.803 168.220 234.196 169.678 C 232.493 173.769,229.586 174.978,228.374 172.100 C 228.187 171.656,228.091 168.821,228.005 161.200 C 227.863 148.695,227.714 148.063,224.522 146.502 C 220.753 144.658,216.769 146.725,213.694 152.121 L 212.800 153.690 212.800 151.658 C 212.800 148.145,211.689 146.787,208.804 146.773 C 206.911 146.764,206.398 147.331,206.784 149.007 C 206.904 149.524,206.992 152.794,206.995 156.780 L 207.000 163.661 206.381 166.180 C 205.011 171.763,202.651 174.605,200.389 173.394 C 199.308 172.816,199.308 172.817,199.200 160.500 L 199.100 149.100 198.642 148.364 C 197.390 146.350,192.924 146.155,193.172 148.126 C 193.212 148.441,193.302 154.280,193.372 161.100 C 193.499 173.405,193.504 173.509,193.957 174.629 C 195.859 179.334,201.571 180.118,205.962 176.277 L 207.000 175.369 207.000 175.955 C 207.000 177.403,208.560 178.655,210.395 178.680 C 212.734 178.712,212.800 178.475,212.801 170.056 C 212.803 162.557,212.913 161.657,214.208 158.600 C 216.344 153.554,220.082 149.812,221.449 151.350 C 222.126 152.112,222.198 153.196,222.199 162.740 C 222.200 168.876,222.278 172.551,222.422 173.240 C 223.833 179.984,231.918 180.642,236.510 174.386 L 237.252 173.376 238.494 174.609 C 243.698 179.774,252.534 180.131,257.852 175.391 C 259.184 174.204,259.029 174.221,259.671 175.191 C 262.320 179.195,269.034 179.874,273.223 176.563 L 274.243 175.757 275.146 176.672 C 278.698 180.275,285.000 178.969,288.248 173.956 C 289.004 172.790,288.779 172.749,290.246 174.317 C 297.713 182.300,310.825 179.137,314.364 168.500 C 314.927 166.808,316.530 158.782,316.901 155.800 C 317.072 154.425,317.234 153.165,317.261 153.000 C 317.325 152.605,319.651 156.809,321.425 160.523 C 322.557 162.894,322.794 163.552,322.638 163.885 C 321.830 165.619,315.279 173.608,313.618 174.886 C 312.948 175.402,312.400 175.958,312.400 176.122 C 312.400 177.968,316.268 179.413,318.200 178.287 C 318.687 178.004,319.866 176.523,322.073 173.420 L 325.245 168.961 326.247 170.830 C 330.014 177.864,334.641 180.352,339.542 177.980 C 343.985 175.829,348.105 166.556,345.790 163.919 C 343.917 161.786,342.821 162.551,341.806 166.700 C 339.813 174.853,336.342 176.282,332.513 170.528 C 330.946 168.173,328.899 163.879,329.125 163.418 C 329.221 163.221,331.268 160.252,333.674 156.820 L 338.048 150.580 337.957 149.483 C 337.853 148.225,337.112 146.993,336.013 146.253 C 334.490 145.227,333.837 145.780,331.424 150.135 C 329.653 153.333,327.165 157.459,326.708 157.957 C 326.522 158.159,326.059 157.392,324.537 154.357 C 320.731 146.768,319.937 145.926,316.629 145.969 C 313.286 146.012,312.626 146.695,312.377 150.367 C 311.626 161.452,309.862 168.364,307.073 171.153 C 303.274 174.952,296.743 174.317,294.183 169.900 C 293.454 168.642,293.442 168.711,294.450 168.409 C 306.319 164.860,309.400 145.922,298.101 145.967 C 291.393 145.993,285.548 155.312,286.311 164.764 C 286.833 171.242,281.634 176.647,279.346 172.004 L 278.900 171.100 278.800 148.900 C 278.722 131.530,278.645 126.604,278.447 126.258 C 278.049 125.562,276.973 124.841,275.996 124.616 C 275.012 124.389,274.881 124.388,273.667 124.586 M195.700 129.678 C 192.012 131.289,191.864 136.501,195.456 138.290 C 199.253 140.183,203.325 136.440,201.891 132.376 C 201.065 130.033,197.972 128.685,195.700 129.678 M246.268 151.411 C 249.116 153.651,244.492 164.400,240.680 164.400 C 240.333 164.400,240.773 158.657,241.267 156.761 C 242.431 152.285,244.528 150.042,246.268 151.411 M298.080 151.227 C 301.004 152.559,298.357 160.865,294.110 163.684 C 292.492 164.759,292.523 164.802,292.664 161.650 C 292.972 154.790,295.447 150.027,298.080 151.227 M273.000 161.012 L 273.000 170.824 271.979 171.903 C 267.959 176.154,263.200 172.642,263.200 165.425 C 263.200 158.009,266.055 153.214,271.496 151.494 C 273.153 150.970,273.000 149.999,273.000 161.012 " stroke="none" fill="#151515" fill-rule="evenodd"></path><path id="path2" d="M62.000 109.299 C 57.754 110.258,54.205 113.691,53.109 117.899 C 52.837 118.943,52.800 122.791,52.800 150.132 L 52.800 181.179 53.298 182.755 C 55.972 191.219,66.568 193.756,72.801 187.425 C 74.814 185.381,75.729 183.487,76.436 179.900 C 76.893 177.585,78.651 175.394,80.962 174.259 L 82.100 173.700 96.100 173.700 L 110.100 173.700 111.440 174.335 C 113.946 175.522,115.413 177.535,115.926 180.489 C 118.146 193.277,134.224 194.796,138.859 182.655 L 139.300 181.500 139.354 150.655 C 139.413 116.369,139.485 118.322,138.061 115.427 C 132.459 104.044,115.827 108.670,115.803 121.618 C 115.797 125.368,113.330 128.252,109.493 128.994 C 107.055 129.465,82.709 129.186,81.456 128.672 C 78.088 127.289,76.532 124.898,76.203 120.600 C 75.607 112.812,69.159 107.682,62.000 109.299 M68.940 121.619 C 71.405 122.813,71.368 126.682,68.880 127.721 C 67.623 128.247,60.024 128.112,59.198 127.550 C 56.859 125.958,56.966 122.896,59.404 121.650 C 60.704 120.986,67.585 120.963,68.940 121.619 M132.285 121.653 C 134.535 122.934,134.491 126.332,132.208 127.539 C 130.867 128.248,123.728 128.245,122.381 127.535 C 120.062 126.312,120.018 122.952,122.304 121.657 C 123.522 120.968,131.075 120.965,132.285 121.653 M111.401 134.316 C 113.031 135.089,114.488 136.527,115.230 138.096 L 115.800 139.300 115.800 151.418 L 115.800 163.536 115.196 164.744 C 114.117 166.904,111.914 168.523,109.408 168.998 C 107.909 169.283,84.439 169.267,82.887 168.981 C 79.543 168.364,76.999 165.846,76.392 162.552 C 75.920 159.990,76.234 140.065,76.767 138.744 C 77.680 136.480,79.453 134.777,81.679 134.024 C 82.871 133.620,83.220 133.611,96.500 133.655 L 110.100 133.700 111.401 134.316 M131.900 134.178 C 135.359 135.775,134.394 140.290,130.504 140.707 C 128.105 140.964,123.393 140.730,122.532 140.311 C 119.926 139.043,120.162 135.068,122.900 134.100 C 124.209 133.638,130.854 133.695,131.900 134.178 M69.216 134.455 C 71.486 135.985,71.333 139.222,68.935 140.383 C 67.690 140.986,60.774 141.006,59.463 140.411 C 56.892 139.244,56.914 135.664,59.500 134.233 C 60.371 133.752,68.446 133.936,69.216 134.455 M69.006 147.050 C 71.317 148.218,71.490 151.285,69.335 152.882 C 68.471 153.522,59.933 153.527,59.077 152.888 C 56.857 151.230,57.023 148.267,59.404 147.050 C 60.229 146.629,60.534 146.600,64.200 146.600 C 67.863 146.600,68.173 146.629,69.006 147.050 M132.216 147.008 C 134.100 147.970,134.562 150.519,133.143 152.134 C 132.114 153.306,131.681 153.400,127.300 153.400 C 122.919 153.400,122.486 153.306,121.457 152.134 C 120.055 150.537,120.495 147.993,122.342 147.018 C 123.505 146.404,131.017 146.397,132.216 147.008 M69.068 159.684 C 71.797 161.028,71.362 165.202,68.411 165.997 C 66.654 166.470,59.997 166.187,59.145 165.603 C 56.649 163.891,57.304 160.120,60.225 159.391 C 61.605 159.047,68.218 159.266,69.068 159.684 M131.900 159.578 C 134.382 160.723,134.734 163.878,132.555 165.433 C 131.620 166.100,123.561 166.261,122.400 165.636 C 119.913 164.297,120.083 160.761,122.692 159.576 C 123.896 159.029,130.713 159.030,131.900 159.578 M68.920 172.381 C 71.392 173.504,71.384 177.308,68.908 178.483 C 68.291 178.775,67.608 178.814,63.930 178.761 L 59.668 178.700 58.913 178.124 C 56.928 176.609,57.246 173.396,59.480 172.381 C 60.190 172.059,60.824 172.009,64.200 172.009 C 67.576 172.009,68.210 172.059,68.920 172.381 M132.203 172.370 C 134.089 173.372,134.554 175.927,133.143 177.534 C 132.114 178.706,131.681 178.800,127.300 178.800 C 121.793 178.800,120.112 177.764,120.683 174.722 C 121.119 172.396,122.082 172.000,127.300 172.000 C 131.010 172.000,131.589 172.044,132.203 172.370 " stroke="none" fill="#fcdc04" fill-rule="evenodd"></path><path id="path3" d="M180.091 139.050 L 179.300 139.900 180.150 139.109 C 180.940 138.374,181.092 138.200,180.941 138.200 C 180.908 138.200,180.525 138.583,180.091 139.050 M312.250 149.500 C 312.253 149.940,312.294 150.096,312.341 149.848 C 312.389 149.599,312.387 149.239,312.337 149.048 C 312.287 148.856,312.248 149.060,312.250 149.500 M199.293 160.200 C 199.293 165.975,199.319 168.338,199.350 165.450 C 199.381 162.563,199.381 157.837,199.350 154.950 C 199.319 152.063,199.293 154.425,199.293 160.200 M193.293 161.100 C 193.293 167.260,193.319 169.809,193.350 166.764 C 193.381 163.720,193.381 158.680,193.350 155.564 C 193.319 152.449,193.293 154.940,193.293 161.100 M262.691 151.050 L 261.900 151.900 262.750 151.109 C 263.540 150.374,263.692 150.200,263.541 150.200 C 263.508 150.200,263.125 150.583,262.691 151.050 M154.857 153.900 C 154.859 154.450,154.898 154.651,154.944 154.347 C 154.989 154.043,154.988 153.593,154.941 153.347 C 154.893 153.101,154.856 153.350,154.857 153.900 M305.254 153.800 C 305.254 154.295,305.293 154.498,305.341 154.250 C 305.389 154.003,305.389 153.597,305.341 153.350 C 305.293 153.103,305.254 153.305,305.254 153.800 M299.054 154.000 C 299.054 154.495,299.093 154.697,299.141 154.450 C 299.189 154.203,299.189 153.798,299.141 153.550 C 299.093 153.303,299.054 153.505,299.054 154.000 M222.050 154.100 C 222.053 154.540,222.094 154.696,222.141 154.448 C 222.189 154.199,222.187 153.839,222.137 153.648 C 222.087 153.456,222.048 153.660,222.050 154.100 M154.860 156.400 C 154.860 157.005,154.897 157.253,154.943 156.950 C 154.989 156.648,154.989 156.153,154.943 155.850 C 154.897 155.548,154.860 155.795,154.860 156.400 M295.589 162.350 L 294.900 163.100 295.650 162.411 C 296.348 161.769,296.492 161.600,296.339 161.600 C 296.306 161.600,295.968 161.938,295.589 162.350 M292.600 163.688 C 292.600 163.957,292.674 164.222,292.764 164.278 C 292.854 164.333,292.889 164.114,292.841 163.789 C 292.736 163.075,292.600 163.017,292.600 163.688 M300.400 164.700 C 299.914 165.195,299.562 165.600,299.617 165.600 C 299.672 165.600,300.114 165.195,300.600 164.700 C 301.086 164.205,301.438 163.800,301.383 163.800 C 301.328 163.800,300.886 164.205,300.400 164.700 M248.487 164.650 L 247.900 165.300 248.550 164.713 C 249.156 164.165,249.292 164.000,249.137 164.000 C 249.103 164.000,248.810 164.293,248.487 164.650 M235.189 175.950 L 234.500 176.700 235.250 176.011 C 235.948 175.369,236.092 175.200,235.939 175.200 C 235.906 175.200,235.568 175.538,235.189 175.950 " stroke="none" fill="#a0a085" fill-rule="evenodd"></path><path id="path4" d="M179.754 120.745 C 180.113 120.789,180.653 120.789,180.954 120.743 C 181.254 120.697,180.960 120.661,180.300 120.662 C 179.640 120.663,179.394 120.700,179.754 120.745 M165.589 127.350 L 164.900 128.100 165.650 127.411 C 166.063 127.032,166.400 126.694,166.400 126.661 C 166.400 126.508,166.231 126.652,165.589 127.350 M278.896 148.600 C 278.896 160.425,278.921 165.263,278.950 159.350 C 278.979 153.438,278.979 143.763,278.950 137.850 C 278.921 131.938,278.896 136.775,278.896 148.600 M315.850 145.938 C 316.043 145.988,316.358 145.988,316.550 145.938 C 316.743 145.888,316.585 145.846,316.200 145.846 C 315.815 145.846,315.658 145.888,315.850 145.938 M206.890 156.800 C 206.890 160.815,206.917 162.458,206.950 160.450 C 206.982 158.443,206.982 155.158,206.950 153.150 C 206.917 151.143,206.890 152.785,206.890 156.800 M312.250 150.900 C 312.253 151.340,312.294 151.496,312.341 151.248 C 312.389 150.999,312.387 150.639,312.337 150.448 C 312.287 150.256,312.248 150.460,312.250 150.900 M228.092 161.300 C 228.092 166.140,228.118 168.091,228.150 165.636 C 228.182 163.181,228.182 159.221,228.150 156.836 C 228.118 154.451,228.092 156.460,228.092 161.300 M254.887 171.250 L 254.300 171.900 254.950 171.313 C 255.556 170.765,255.692 170.600,255.537 170.600 C 255.503 170.600,255.210 170.893,254.887 171.250 M314.800 173.700 C 314.314 174.195,313.962 174.600,314.017 174.600 C 314.072 174.600,314.514 174.195,315.000 173.700 C 315.486 173.205,315.838 172.800,315.783 172.800 C 315.728 172.800,315.286 173.205,314.800 173.700 M310.589 174.750 L 309.900 175.500 310.650 174.811 C 311.348 174.169,311.492 174.000,311.339 174.000 C 311.306 174.000,310.968 174.338,310.589 174.750 M290.000 174.263 C 290.000 174.297,290.293 174.590,290.650 174.913 L 291.300 175.500 290.713 174.850 C 290.165 174.244,290.000 174.108,290.000 174.263 " stroke="none" fill="#7c7c68" fill-rule="evenodd"></path></g></svg>